Results
version=1
nRows=24
nColumns=24
inDegrees=yes
endheader
time	pelvis_tilt	pelvis_list	pelvis_rotation	pelvis_tx	pelvis_ty	pelvis_tz	hip_flexion_r	hip_adduction_r	hip_rotation_r	knee_angle_r	ankle_angle_r	subtalar_angle_r	mtp_angle_r	hip_flexion_l	hip_adduction_l	hip_rotation_l	knee_angle_l	ankle_angle_l	subtalar_angle_l	mtp_angle_l	lumbar_extension	lumbar_bending	lumbar_rotation
      0.68316667	     -5.86659981	     -3.57490197	      2.10346136	     -0.47696347	      0.99394029	      0.30844186	     17.44219787	      7.96736458	     -1.47329282	    -16.48335545	      3.42920074	    -11.83936888	     -0.23119829	     27.80785259	     -3.20726239	     -0.58819376	    -70.25365743	     -5.16466061	     -9.38780706	      2.00624104	      1.98683693	      6.50566667	      3.26377893
      0.68733333	     -5.81346377	     -3.47626562	      2.05733547	     -0.47164894	      0.99493359	      0.30852228	     16.82599919	      7.89278770	     -1.41651725	    -16.08269559	      3.51686544	    -11.70410940	     -0.26491098	     28.31266060	     -3.05540031	     -0.56022853	    -69.88509838	     -4.65370683	     -9.70912633	      1.93089820	      1.89637549	      6.40094987	      3.38175050
      0.69150000	     -5.78123381	     -3.39035188	      1.99129942	     -0.46631856	      0.99585895	      0.30861833	     16.23775733	      7.83373646	     -1.35257019	    -15.69471411	      3.60977971	    -11.59657556	     -0.28339439	     28.81537358	     -2.92918387	     -0.55199328	    -69.45253241	     -4.12117982	    -10.00850638	      1.89097388	      1.85332829	      6.32457929	      3.46594889
      0.69566667	     -5.68880553	     -3.29644031	      1.92858269	     -0.46097127	      0.99684728	      0.30871707	     15.56797028	      7.76729903	     -1.27699988	    -15.26981695	      3.68910334	    -11.43242643	     -0.33257252	     29.22396260	     -2.80140746	     -0.54931352	    -68.93880141	     -3.65205226	    -10.26440477	      1.78724621	      1.71584587	      6.21801430	      3.66414798
      0.69983333	     -5.68571336	     -3.19537217	      1.83289973	     -0.45566549	      0.99763707	      0.30883243	     15.02788584	      7.69290138	     -1.18107897	    -14.91483546	      3.78086334	    -11.32004796	     -0.35704122	     29.70930637	     -2.67480702	     -0.57740259	    -68.37275505	     -3.13327263	    -10.52806496	      1.73648135	      1.68362896	      6.12147907	      3.75805125
      0.70400000	     -5.60770284	     -3.09521369	      1.74419056	     -0.45030693	      0.99853351	      0.30894714	     14.37948046	      7.62032948	     -1.08593635	    -14.50291628	      3.86996295	    -11.16866491	     -0.40572478	     30.07926832	     -2.55663761	     -0.60639691	    -67.72109134	     -2.67821752	    -10.73363965	      1.63732704	      1.57355371	      6.01546938	      3.96140638
      0.70816667	     -5.56355152	     -2.98427945	      1.63331741	     -0.44497322	      0.99930394	      0.30906932	     13.78997899	      7.53465705	     -0.98003542	    -14.13669198	      3.96725988	    -11.01890066	     -0.45732904	     30.46330992	     -2.43696888	     -0.66176126	    -67.01267929	     -2.20832778	    -10.93172124	      1.53249815	      1.49641201	      5.90331381	      4.13627138
      0.71233333	     -5.55414724	     -2.87541813	      1.50003460	     -0.43966045	      0.99997903	      0.30919585	     13.25158197	      7.45023228	     -0.85565132	    -13.79580031	      4.05777234	    -10.89464128	     -0.49185430	     30.86063719	     -2.32793416	     -0.73479090	    -66.24260206	     -1.73342463	    -11.11942392	      1.46236917	      1.46010359	      5.81099579	      4.26175742
      0.71650000	     -5.51818961	     -2.77979758	      1.38142867	     -0.43432067	      1.00063182	      0.30933426	     12.67046605	      7.37827007	     -0.74533592	    -13.42339744	      4.16180836	    -10.74588440	     -0.54438167	     31.21038308	     -2.23653941	     -0.79725547	    -65.41674297	     -1.31681669	    -11.25406922	      1.35337251	      1.39042161	      5.70051993	      4.47872504
      0.72066667	     -5.50934964	     -2.67364488	      1.23052311	     -0.42900102	      1.00120557	      0.30947002	     12.13872513	      7.29475884	     -0.60298518	    -13.09195030	      4.25140543	    -10.62370707	     -0.57707597	     31.55734253	     -2.14477527	     -0.88933045	    -64.52131145	     -0.88377107	    -11.39206038	      1.28388910	      1.35234022	      5.61428962	      4.60345388
      0.72483333	     -5.48317555	     -2.57407382	      1.08393797	     -0.42366937	      1.00174101	      0.30961544	     11.58391663	      7.21652788	     -0.46642835	    -12.74896509	      4.34951039	    -10.48912507	     -0.61032829	     31.86488973	     -2.06503522	     -0.97947919	    -63.57061527	     -0.49154438	    -11.49731035	      1.20960308	      1.29410421	      5.51933700	      4.77282166
      0.72900000	     -5.50284054	     -2.49632568	      0.93604217	     -0.41835769	      1.00212922	      0.30975165	     11.08729832	      7.15724288	     -0.33201863	    -12.41774744	      4.45104762	    -10.36348216	     -0.63949573	     32.20950555	     -2.00558485	     -1.05732018	    -62.57943124	     -0.12592382	    -11.58054416	      1.14068454	      1.28852149	      5.44883881	      4.93391984
      0.73316667	     -5.47015273	     -2.39839684	      0.77963486	     -0.41301965	      1.00255915	      0.30988574	     10.53491553	      7.07369461	     -0.20151210	    -12.09115442	      4.55750794	    -10.22229903	     -0.67432935	     32.45926568	     -1.93556315	     -1.15948565	    -61.50976079	      0.20112048	    -11.64652421	      1.05465323	      1.22493192	      5.35500868	      5.13212155
      0.73733333	     -5.48642720	     -2.32813450	      0.62329601	     -0.40769641	      1.00285084	      0.31002934	     10.04081337	      7.01858534	     -0.06360552	    -11.76887746	      4.65991364	    -10.09012046	     -0.70618234	     32.74984904	     -1.89297070	     -1.24332226	    -60.40087338	      0.50091071	    -11.69771724	      0.97177110	      1.21593368	      5.29528435	      5.30477244
      0.74150000	     -5.48245310	     -2.25761483	      0.46744020	     -0.40237208	      1.00311664	      0.31015447	      9.52796838	      6.95922704	      0.06706634	    -11.45219992	      4.76921249	     -9.96159500	     -0.73838004	     32.99201751	     -1.84981752	     -1.32749938	    -59.23223948	      0.76529847	    -11.73442565	      0.88385588	      1.18898125	      5.23257311	      5.48122829
      0.74566667	     -5.46768381	     -2.20263268	      0.33101898	     -0.39703039	      1.00333104	      0.31025310	      8.99945058	      6.90922364	      0.15853037	    -11.12426527	      4.88676278	     -9.81196840	     -0.79900897	     33.20541877	     -1.81354800	     -1.38820829	    -58.01822058	      0.98192379	    -11.75951311	      0.71723452	      1.14413081	      5.18486764	      5.74373420
      0.74983333	     -5.49993044	     -2.15081788	      0.15762277	     -0.39172077	      1.00341776	      0.31040335	      8.54214497	      6.86897716	      0.31657989	    -10.83689658	      4.99196468	     -9.69458709	     -0.82707011	     33.44264122	     -1.80109724	     -1.47947004	    -56.75267816	      1.19304335	    -11.75714526	      0.63311957	      1.15777777	      5.15056482	      5.83606945
      0.75400000	     -5.50737433	     -2.09763266	      0.00199310	     -0.38639124	      1.00350275	      0.31051939	      8.05043883	      6.82085547	      0.44783289	    -10.53247912	      5.10369803	     -9.57491939	     -0.85586005	     33.62619149	     -1.77681899	     -1.55443096	    -55.42557073	      1.35126055	    -11.74959209	      0.54374645	      1.13594953	      5.11156849	      5.98257398
      0.75816667	     -5.50037074	     -2.07070129	     -0.14286992	     -0.38104951	      1.00354404	      0.31063007	      7.54242830	      6.79769227	      0.55831129	    -10.22787610	      5.22036261	     -9.45637622	     -0.88661423	     33.77544024	     -1.77537638	     -1.60801661	    -54.05691078	      1.47591263	    -11.72706005	      0.44605995	      1.11727374	      5.09405636	      6.14270584
      0.76233333	     -5.47544412	     -2.05038499	     -0.26574384	     -0.37571006	      1.00355617	      0.31069365	      7.01350582	      6.77521327	      0.64147948	     -9.91508598	      5.33836011	     -9.33124016	     -0.94066507	     33.88426990	     -1.76405912	     -1.63405852	    -52.64048651	      1.56412254	    -11.70159747	      0.28384858	      1.05313363	      5.09370893	      6.34556146
      0.76650000	     -5.51706976	     -2.03195407	     -0.42315238	     -0.37039512	      1.00342410	      0.31081200	      6.57538869	      6.76028780	      0.77863691	     -9.64262959	      5.45908139	     -9.22702508	     -0.96401586	     34.03808361	     -1.77694239	     -1.69189152	    -51.17461450	      1.62410149	    -11.62651803	      0.20684528	      1.07682478	      5.09876645	      6.41972757
      0.77066667	     -5.51998635	     -2.02675514	     -0.55547974	     -0.36505957	      1.00328445	      0.31089779	      6.08641715	      6.75459939	      0.87940084	     -9.35249962	      5.58804428	     -9.12606524	     -0.99172320	     34.12910958	     -1.78955725	     -1.72224601	    -49.66671206	      1.64581186	    -11.55632512	      0.11928056	      1.05513999	      5.10757894	      6.54217217
      0.77483333	     -5.51330198	     -2.03362065	     -0.67944079	     -0.35970675	      1.00311808	      0.31097847	      5.58509551	      6.76046820	      0.96922316	     -9.05988567	      5.71931961	     -9.02763523	     -1.02490798	     34.18368612	     -1.81080299	     -1.74280225	    -48.11182920	      1.64025860	    -11.46961242	      0.02095534	      1.02822616	      5.13040154	      6.67334103
      0.77900000	     -5.50264503	     -2.05926917	     -0.79560535	     -0.35435642	      1.00289074	      0.31104286	      5.08251362	      6.78421622	      1.04933242	     -8.77526266	      5.85667082	     -8.93476561	     -1.05802022	     34.21524513	     -1.84642665	     -1.74799003	    -46.52473641	      1.61097510	    -11.35968372	     -0.07193962	      0.99253594	      5.17806624	      6.78289199
